<svg width="2560" height="1376" viewBox="0 0 2560 1376" fill="none" xmlns="http://www.w3.org/2000/svg">
<circle opacity="0.200498" cx="308" cy="692" r="692" fill="#B3E5FC"/>
<path opacity="0.749061" fill-rule="evenodd" clip-rule="evenodd" d="M2185.06 328.003C2106.61 186.537 2157.73 8.26181 2299.22 -70.1372L2652.94 -266.129C2794.36 -344.49 2972.54 -293.4 3050.94 -152.003V-152.003C3129.39 -10.5371 3078.27 167.738 2936.78 246.137L2583.06 442.129C2441.64 520.49 2263.46 469.4 2185.06 328.003V328.003Z" fill="url(#paint0_linear_1_28)" fill-opacity="0.5"/>
<circle cx="2455" cy="182" r="395.5" stroke="#03ACF2"/>
<path opacity="0.749061" fill-rule="evenodd" clip-rule="evenodd" d="M-423.945 1611C-502.392 1469.54 -451.272 1291.26 -309.78 1212.86L43.9404 1016.87C185.365 938.51 363.535 989.6 441.945 1131V1131C520.392 1272.46 469.272 1450.74 327.78 1529.14L-25.9404 1725.13C-167.365 1803.49 -345.535 1752.4 -423.945 1611V1611Z" fill="url(#paint1_linear_1_28)" fill-opacity="0.5"/>
<circle cx="196" cy="1255" r="395.5" stroke="#03ACF2"/>
<defs>
<linearGradient id="paint0_linear_1_28" x1="1858.82" y1="-274.185" x2="2030.3" y2="817.511" gradientUnits="userSpaceOnUse">
<stop stop-color="#03A9F4"/>
<stop offset="1" stop-color="#C8E6C9"/>
</linearGradient>
<linearGradient id="paint1_linear_1_28" x1="-750.176" y1="1008.82" x2="-578.699" y2="2100.51" gradientUnits="userSpaceOnUse">
<stop stop-color="#03A9F4"/>
<stop offset="1" stop-color="#C8E6C9"/>
</linearGradient>
</defs>
</svg>
